<?xml version="1.0" encoding="UTF-8" standalone="no"?>
<!DOCTYPE svg PUBLIC "-//W3C//DTD SVG 1.1//EN" "http://www.w3.org/Graphics/SVG/1.1/DTD/svg11.dtd">
<svg width="100%" height="100%" viewBox="0 0 1693 476" version="1.1" xmlns="http://www.w3.org/2000/svg" xmlns:xlink="http://www.w3.org/1999/xlink" xml:space="preserve" xmlns:serif="http://www.serif.com/" style="fill-rule:evenodd;clip-rule:evenodd;stroke-miterlimit:10;">
    <g transform="matrix(4.16667,0,0,4.16667,376.84,155.902)">
        <path d="M0,29.729L6.592,29.729C11.574,29.729 16.406,27.364 16.406,21.41C16.406,17.94 14.083,14.51 10.75,13.879L10.75,13.8C12.661,12.854 13.784,10.33 13.784,8.162C13.784,1.459 8.765,0 3.446,0L0,0L0,29.729ZM3.521,16.126L5.693,16.126C8.84,16.126 12.885,16.994 12.885,21.173C12.885,25.392 9.477,26.417 6.218,26.417L3.521,26.417L3.521,16.126ZM3.521,3.312L4.495,3.312C7.791,3.312 10.488,4.022 10.488,8.201C10.488,12.459 7.753,13.169 4.42,13.169L3.521,13.169L3.521,3.312Z" style="fill:rgb(35,31,32);"/>
    </g>
    <g transform="matrix(4.16667,0,0,4.16667,492.452,268.274)">
        <path d="M0,-12.854C3.333,-12.854 5.993,-9.936 5.993,-6.427C5.993,-2.957 3.333,0 0,0C-3.333,0 -5.993,-2.957 -5.993,-6.427C-5.993,-9.936 -3.333,-12.854 0,-12.854M0,-16.245C-5.244,-16.245 -9.364,-11.986 -9.364,-6.427C-9.364,-0.867 -5.244,3.391 0,3.391C5.244,3.391 9.364,-0.867 9.364,-6.427C9.364,-11.986 5.244,-16.245 0,-16.245" style="fill:rgb(35,31,32);"/>
    </g>
    <g transform="matrix(4.16667,0,0,4.16667,598.652,139.802)">
        <path d="M0,33.593L3.372,33.593L3.372,-0.631L0,-0.631L0,18.216L-0.075,18.216C-1.46,16.008 -3.558,14.589 -6.18,14.589C-11.237,14.589 -14.421,19.202 -14.421,24.249C-14.421,29.532 -11.424,34.224 -6.03,34.224C-3.558,34.224 -1.423,32.805 -0.075,30.715L0,30.715L0,33.593ZM-5.506,31.07C-9.064,31.07 -11.05,27.836 -11.05,24.367C-11.05,20.937 -8.989,17.743 -5.506,17.743C-1.873,17.743 0.188,20.779 0.188,24.367C0.188,27.994 -1.835,31.07 -5.506,31.07" style="fill:rgb(35,31,32);"/>
    </g>
    <g transform="matrix(4.16667,0,0,4.16667,640.147,250.369)">
        <path d="M0,-4.259C0.412,-6.901 2.36,-8.872 4.982,-8.872C7.679,-8.872 9.402,-7.019 9.814,-4.259L0,-4.259ZM13.185,-1.578L13.185,-2.13C13.185,-7.611 10.563,-11.947 4.982,-11.947C-0.674,-11.947 -3.558,-7.689 -3.558,-2.011C-3.558,3.43 -0.299,7.688 5.057,7.688C8.466,7.688 11.537,5.835 13.185,2.641L10.338,0.946C9.065,3.154 7.679,4.533 5.094,4.533C1.873,4.533 -0.15,1.576 -0.187,-1.578L13.185,-1.578Z" style="fill:rgb(35,31,32);"/>
    </g>
    <g transform="matrix(4.16667,0,0,4.16667,721.072,277.474)">
        <path d="M0,-17.901L-3.371,-17.901L-3.371,0.552L0,0.552L0,-7.925C0,-11.277 0,-15.298 4.345,-15.298C7.791,-15.298 8.203,-13.17 8.203,-10.015L8.203,0.552L11.574,0.552L11.574,-10.449C11.574,-14.943 10.301,-18.453 5.356,-18.453C3.221,-18.453 1.124,-17.388 0.075,-15.417L0,-15.417L0,-17.901Z" style="fill:rgb(35,31,32);fill-rule:nonzero;"/>
    </g>
    <g transform="matrix(4.16667,0,0,4.16667,829.332,268.929)">
        <path d="M0,-13.169C-0.937,-15.18 -2.659,-16.402 -4.794,-16.402C-7.641,-16.402 -9.964,-14.036 -9.964,-11.04C-9.964,-8.516 -8.541,-7.491 -6.592,-6.388L-3.296,-4.534C-2.51,-3.981 -2.06,-3.509 -2.06,-2.523C-2.06,-0.946 -3.296,0.079 -4.72,0.079C-6.33,0.079 -7.192,-0.906 -7.903,-2.286L-10.788,-0.906C-9.851,1.696 -7.267,3.233 -4.72,3.233C-1.461,3.233 1.311,0.631 1.311,-2.878C1.311,-5.796 -0.674,-7.136 -2.734,-8.122C-4.794,-9.107 -6.817,-9.817 -6.817,-11.434C-6.817,-12.459 -5.918,-13.248 -4.982,-13.248C-4.008,-13.248 -3.146,-12.538 -2.734,-11.631L0,-13.169Z" style="fill:rgb(35,31,32);fill-rule:nonzero;"/>
    </g>
    <g transform="matrix(4.16667,0,0,4.16667,857.673,250.369)">
        <path d="M0,-4.259C0.412,-6.901 2.36,-8.872 4.981,-8.872C7.679,-8.872 9.402,-7.019 9.814,-4.259L0,-4.259ZM13.185,-1.578L13.185,-2.13C13.185,-7.611 10.563,-11.947 4.981,-11.947C-0.674,-11.947 -3.558,-7.689 -3.558,-2.011C-3.558,3.43 -0.3,7.688 5.057,7.688C8.466,7.688 11.537,5.835 13.185,2.641L10.339,0.946C9.064,3.154 7.679,4.533 5.095,4.533C1.873,4.533 -0.149,1.576 -0.188,-1.578L13.185,-1.578Z" style="fill:rgb(35,31,32);"/>
    </g>
    <g transform="matrix(4.16667,0,0,4.16667,933.759,250.369)">
        <path d="M0,-4.259C0.412,-6.901 2.359,-8.872 4.981,-8.872C7.679,-8.872 9.401,-7.019 9.813,-4.259L0,-4.259ZM13.185,-1.578L13.185,-2.13C13.185,-7.611 10.563,-11.947 4.981,-11.947C-0.675,-11.947 -3.559,-7.689 -3.559,-2.011C-3.559,3.43 -0.3,7.688 5.057,7.688C8.465,7.688 11.536,5.835 13.185,2.641L10.338,0.946C9.064,3.154 7.679,4.533 5.094,4.533C1.873,4.533 -0.149,1.576 -0.188,-1.578L13.185,-1.578Z" style="fill:rgb(35,31,32);"/>
    </g>
    <g transform="matrix(4.16667,0,0,4.16667,1000.95,155.902)">
        <path d="M0,29.729L10.001,29.729L9.776,17.27L10.001,17.27C10.227,18.492 11.125,19.596 11.725,20.739L16.594,29.729L28.505,29.729L18.729,14.47L27.568,0L16.369,0L11.425,9.541C10.862,10.606 10.227,11.671 10.001,12.893L9.776,12.893L10.001,0L0,0L0,29.729Z" style="fill:rgb(35,31,32);fill-rule:nonzero;"/>
    </g>
    <g transform="matrix(4.16667,0,0,4.16667,1128.73,155.902)">
        <path d="M0,29.729L18.878,29.729L18.878,20.187L10.264,20.187L10.264,0L0,0L0,29.729Z" style="fill:rgb(35,31,32);fill-rule:nonzero;"/>
    </g>
    <g transform="matrix(4.16667,0,0,4.16667,-531.496,-1693.66)">
        <rect x="420.197" y="443.895" width="10.264" height="29.729" style="fill:rgb(35,31,32);"/>
    </g>
    <g transform="matrix(4.16667,0,0,4.16667,1281.25,155.902)">
        <path d="M0,29.729L9.813,29.729L9.813,20.069C9.813,18.098 9.514,16.166 9.177,14.115L9.477,14.115L18.504,29.729L28.317,29.729L28.317,0L18.504,0L18.504,8.911C18.504,11.434 18.953,13.997 19.365,16.481L19.065,16.481L9.852,0L0,0L0,29.729Z" style="fill:rgb(35,31,32);"/>
    </g>
    <g transform="matrix(4.16667,0,0,4.16667,-531.496,-1693.66)">
        <rect x="467.928" y="443.895" width="10.263" height="29.729" style="fill:rgb(35,31,32);"/>
    </g>
    <g transform="matrix(4.16667,0,0,4.16667,1481.06,155.902)">
        <path d="M0,29.729L10.002,29.729L9.776,17.27L10.002,17.27C10.227,18.492 11.125,19.596 11.725,20.739L16.594,29.729L28.506,29.729L18.729,14.47L27.569,0L16.369,0L11.425,9.541C10.863,10.606 10.227,11.671 10.002,12.893L9.776,12.893L10.002,0L0,0L0,29.729Z" style="fill:rgb(35,31,32);fill-rule:nonzero;"/>
    </g>
    <g transform="matrix(4.16667,0,0,4.16667,285.606,319.2)">
        <path d="M0,-8.396C-8.406,-3.079 -18.37,0 -29.052,0C-39.735,0 -49.698,-3.079 -58.104,-8.396L0,-8.396Z" style="fill:rgb(35,31,32);fill-rule:nonzero;"/>
    </g>
    <g transform="matrix(4.16667,0,0,4.16667,222.718,329.1)">
        <path d="M0,-50.319C8.809,-45.698 16.456,-38.609 21.798,-29.358C27.139,-20.106 29.456,-9.938 29.053,0L0,-50.319Z" style="fill:rgb(35,31,32);fill-rule:nonzero;"/>
    </g>
    <g transform="matrix(4.16667,0,0,4.16667,128.652,75.1642)">
        <path d="M0,50.316C-0.403,40.378 1.913,30.212 7.253,20.961C12.594,11.71 20.241,4.62 29.048,0L0,50.316Z" style="fill:rgb(35,31,32);fill-rule:nonzero;"/>
    </g>
    <g transform="matrix(4.16667,0,0,4.16667,0,0)">
        <text x="238.227px" y="91.837px" style="font-family:'ArialMT', 'Arial', sans-serif;font-size:23px;fill:rgb(35,31,32);">P<tspan x="253.378px 260.847px 273.448px 279.648px 285.848px 290.897px 307.317px 313.517px 319.717px 327.403px 346.372px 358.974px 371.575px " y="91.837px 91.837px 91.837px 91.837px 91.837px 91.837px 91.837px 91.837px 91.837px 91.837px 91.837px 91.837px 91.837px ">rof. Dr. Mang</tspan></text>
    </g>
    <g transform="matrix(4.16667,0,0,4.16667,-418.996,1991.84)">
        <path d="M0,-841.89L-27,-841.89M607.275,-841.89L634.275,-841.89M0,0L-27,0M607.275,0L634.275,0M6,-847.89L6,-874.89M6,6L6,33M601.275,-847.89L601.275,-874.89M601.275,6L601.275,33" style="fill:none;fill-rule:nonzero;stroke:white;stroke-width:1.25px;"/>
    </g>
    <g transform="matrix(4.16667,0,0,4.16667,-418.996,1991.84)">
        <path d="M0,-841.89L-27,-841.89M607.275,-841.89L634.275,-841.89M0,0L-27,0M607.275,0L634.275,0M6,-847.89L6,-874.89M6,6L6,33M601.275,-847.89L601.275,-874.89M601.275,6L601.275,33" style="fill:none;fill-rule:nonzero;stroke:black;stroke-width:0.25px;"/>
    </g>
</svg>
